<?xml version="1.0" standalone="no"?>
<!DOCTYPE svg PUBLIC "-//W3C//DTD SVG 20010904//EN"
 "http://www.w3.org/TR/2001/REC-SVG-20010904/DTD/svg10.dtd">
<svg version="1.0" xmlns="http://www.w3.org/2000/svg"
 width="97.000000pt" height="94.000000pt" viewBox="0 0 97.000000 94.000000"
 preserveAspectRatio="xMidYMid meet">

<g transform="translate(0.000000,94.000000) scale(0.100000,-0.100000)"
fill="#000000" stroke="none">
<path d="M303 690 c-17 -10 -37 -28 -42 -39 -17 -31 -14 -356 3 -390 30 -58
125 -70 178 -22 33 29 33 29 36 141 l4 111 -58 -3 c-55 -3 -58 -4 -61 -31 -3
-22 1 -30 17 -34 19 -5 21 -12 18 -72 l-3 -66 -30 0 -30 0 0 170 0 170 30 0
c28 0 30 -3 35 -40 5 -38 7 -40 44 -43 l39 -3 -6 50 c-8 66 -22 90 -62 107
-46 19 -74 18 -112 -6z"/>
<path d="M522 459 l3 -243 35 0 35 -1 3 103 c2 92 4 102 22 102 46 0 50 -8 50
-100 0 -96 6 -107 54 -106 l29 1 -2 93 c-2 94 -11 134 -31 147 -7 4 -3 15 10
32 31 39 28 142 -4 180 -23 26 -30 28 -115 32 l-91 3 2 -243z m136 159 c7 -7
12 -33 12 -60 0 -37 -4 -50 -19 -58 -44 -23 -51 -14 -51 60 0 66 1 70 23 70
13 0 28 -5 35 -12z"/>
</g>
</svg>
